# xmcd
#
# Track frame offsets:
#	150
#	19602
#	40675
#	61190
#	81327
#	100967
#	121675
#	143437
#	165040
#	185172
#
# Disc length: 2702 seconds
#
# Revision: 3
# Processed by: cddbd v1.5.2PL0 Copyright (c) Steve Scherf et al.
# Submitted via: EasyCDDAExtractor 15.3.0.1
#
DISCID=6f0a8c0a
DTITLE=Manny Manuel - Rey De Corazones
DYEAR=1994
DGENRE=Latin
TTITLE0=Mi Problema
TTITLE1=Estrellita
TTITLE2=Distanciado (La Foto)
TTITLE3=Los Hombres No Deben Llorar
TTITLE4=Pero Que Necesidad
TTITLE5=Se Acabo Lo Que Se Daba
TTITLE6=Si Una Vez
TTITLE7=Rey De Corazones
TTITLE8=Maniqui
TTITLE9=Ilusionado
EXTD=
EXTT0=
EXTT1=
EXTT2=
EXTT3=
EXTT4=
EXTT5=
EXTT6=
EXTT7=
EXTT8=
EXTT9=
PLAYORDER=
